<svg xmlns="http://www.w3.org/2000/svg" viewBox="0 0 141.56778 181.8503" aria-hidden="true">
  <path
    fill="#D91010"
    stroke="#1a1a1a"
    stroke-width="2.5"
    stroke-linejoin="round"
    d="m 661.7438,361.72853 c -1.12952,0.58008 -3.28866,1.18238 -4.22378,1.17825 -0.47159,-0.002 -0.91671,0.0373 -0.98915,0.0876 -0.15111,0.10486 -2.87791,0.11618 -4.84415,0.0201 -3.04159,-0.1486 -8.3214,-1.27571 -11.93406,-2.54763 -3.9651,-1.39601 -10.91338,-4.90266 -12.89699,-6.50884 -0.53009,-0.42923 -1.06526,-0.78248 -1.18925,-0.785 -0.32898,-0.007 -6.72759,-5.28218 -9.3616,-7.71841 -7.26025,-6.7151 -14.59049,-15.04301 -19.68532,-22.36456 -3.28798,-4.72499 -3.40577,-4.93057 -3.56468,-6.22161 -0.22573,-1.83389 -0.12186,-2.43425 0.64967,-3.75525 0.61335,-1.05017 1.19781,-1.52869 7.39837,-6.05727 3.70283,-2.70437 7.07852,-5.24398 7.50154,-5.6436 1.42683,-1.34786 2.06142,-3.51281 1.73041,-5.90335 l -0.20246,-1.46215 -28.7888,-41.44192 c -15.83383,-22.79305 -29.19105,-41.85823 -29.6827,-42.36707 -0.49165,-0.50884 -1.06439,-0.95597 -1.27275,-0.99362 -0.87268,-0.1577 -2.56805,0.86407 -7.84623,4.72881 -6.04497,4.42619 -6.39841,4.59873 -7.61228,3.716 -1.49883,-1.08996 -3.63753,-3.72387 -4.57498,-5.63431 -1.04535,-2.13034 -1.2726,-3.04851 -0.87348,-3.52917 0.27147,-0.32693 5.59716,-4.16137 27.46723,-19.77612 8.20586,-5.8588 10.55146,-7.44426 11.10877,-7.50876 0.54898,-0.0635 0.91095,0.1441 1.62356,0.93132 0.50439,0.5572 1.34598,1.33644 1.8702,1.73164 1.94939,1.46962 3.89945,5.084 3.53538,6.55272 -0.21325,0.86032 -0.3185,0.94615 -6.22197,5.07409 -3.30278,2.30944 -6.19502,4.42849 -6.42721,4.70901 -0.70586,0.85277 -0.54797,1.98238 0.57966,4.1471 1.47446,2.83054 5.84925,9.57874 6.35159,9.79743 0.34452,0.14999 20.03664,27.70689 36.29079,50.78486 l 15.15963,21.52394 1.22447,0.68332 c 1.15984,0.64725 3.13522,0.98199 4.79608,0.81272 0.58108,-0.0592 2.4237,-1.20008 8.10947,-5.02098 7.06845,-4.75005 7.40982,-4.95216 8.68788,-5.14367 3.30935,-0.49588 4.47864,0.3626 8.56275,6.2867 7.55126,10.95327 15.09671,27.48176 17.20805,37.69468 1.7695,8.55935 1.91818,15.67385 0.49244,23.56344 -1.32072,7.3085 -3.1268,11.97715 -5.59189,14.45485 -1.13389,1.13969 -1.26671,1.23835 -2.56421,1.90469 z"
    transform="translate(-529.29614,-181.22995)"
  />
</svg>
